<svg width="100" height="100" viewBox="0 0 100 100" fill="none" xmlns="http://www.w3.org/2000/svg">
<g clip-path="url(#clip0_1_42)">
<mask id="mask0_1_42" style="mask-type:luminance" maskUnits="userSpaceOnUse" x="0" y="0" width="100" height="100">
<path d="M100 50C100 22.3858 77.6142 0 50 0C22.3858 0 0 22.3858 0 50C0 77.6142 22.3858 100 50 100C77.6142 100 100 77.6142 100 50Z" fill="white"/>
</mask>
<g mask="url(#mask0_1_42)">
<path d="M100 0H0V100H100V0Z" fill="#0D38E0"/>
<mask id="mask1_1_42" style="mask-type:luminance" maskUnits="userSpaceOnUse" x="0" y="0" width="100" height="100">
<path d="M99 0H1C0.447715 0 0 0.447715 0 1V99C0 99.5523 0.447715 100 1 100H99C99.5523 100 100 99.5523 100 99V1C100 0.447715 99.5523 0 99 0Z" fill="white"/>
</mask>
<g mask="url(#mask1_1_42)">
<path d="M29.892 47.363C29.892 46.555 39.641 22.105 41.446 20.671C43.251 19.237 62.237 19.395 63.504 20.671C64.771 21.947 79.745 59.239 79.745 59.239L99.406 60.586V98.8H-0.515015L-0.815002 47.358L29.892 47.363Z" fill="white"/>
<path d="M6.57599 22.374H34.82L33.242 25.374H3.42499L6.57599 22.374Z" fill="white"/>
<path d="M20.495 27.374H32.535L31.242 30.374H18.692L20.495 27.374Z" fill="white"/>
<path d="M-0.827026 54.23H27.062C40.616 54.23 40.362 63 52.362 63.161C64.362 63.322 62.286 54.874 75.036 54.874H105.156" stroke="#0D38E0" stroke-width="2"/>
<path d="M-0.827026 62.23H25.062C38.616 62.23 40.362 71 52.362 71.161C64.362 71.322 64.286 62.874 77.036 62.874H105.156" stroke="#0D38E0" stroke-width="2"/>
<path d="M-0.827026 72.23H21.062C34.616 72.23 40.362 81 52.362 81.161C64.362 81.322 68.286 72.874 81.036 72.874H105.156" stroke="#0D38E0" stroke-width="2"/>
<path d="M13.543 77.792H19.121L20.077 79.864H14.543L13.543 77.792Z" fill="#0D38E0"/>
<path d="M22.346 79.864H27.924L28.88 81.936H23.346L22.346 79.864Z" fill="#0D38E0"/>
<path d="M35.414 83.345H40.9919L41.948 85.417H36.414L35.414 83.345Z" fill="#0D38E0"/>
<path d="M19.147 84.734H24.725L25.681 86.806H20.147L19.147 84.734Z" fill="#0D38E0"/>
<path d="M47.276 84.411H52.8539L53.81 86.483H48.276L47.276 84.411Z" fill="#0D38E0"/>
<path d="M55.543 87.842H61.121L62.077 89.914H56.543L55.543 87.842Z" fill="#0D38E0"/>
<path d="M63.543 83.375H69.121L70.077 85.447H64.543L63.543 83.375Z" fill="#0D38E0"/>
<path d="M70.077 79.417H75.655L76.611 81.489H71.077L70.077 79.417Z" fill="#0D38E0"/>
<path d="M76.543 83.345H82.121L83.077 85.417H77.543L76.543 83.345Z" fill="#0D38E0"/>
<path d="M79.543 77.345H85.121L86.077 79.417H80.543L79.543 77.345Z" fill="#0D38E0"/>
<path d="M89.543 81.936H95.121L96.077 84.008H90.543L89.543 81.936Z" fill="#0D38E0"/>
<path d="M28.88 86.806H34.4579L35.414 88.878H29.88L28.88 86.806Z" fill="#0D38E0"/>
<path d="M43.009 89.914H48.587L49.543 91.986H44.009L43.009 89.914Z" fill="#0D38E0"/>
<path d="M67.543 88.273H73.121L74.077 90.345H68.543L67.543 88.273Z" fill="#0D38E0"/>
<path d="M10.276 86.83H15.8539L16.81 88.902H11.276L10.276 86.83Z" fill="#0D38E0"/>
<path d="M82.276 87.304H87.8539L88.81 89.376H83.276L82.276 87.304Z" fill="#0D38E0"/>
<path d="M3.742 81.488H9.31995L10.276 83.56H4.742L3.742 81.488Z" fill="#0D38E0"/>
</g>
<path d="M97 50C97 24.0426 75.9574 3 50 3C24.0426 3 3 24.0426 3 50C3 75.9574 24.0426 97 50 97C75.9574 97 97 75.9574 97 50Z" stroke="#0D38E0" stroke-width="6"/>
</g>
</g>
<defs>
<clipPath id="clip0_1_42">
<rect width="100" height="100" fill="white"/>
</clipPath>
</defs>
</svg>
